<?xml version="1.0" encoding="UTF-8"?>
<svg width="219px" height="33px" viewBox="0 0 219 33" version="1.1" xmlns="http://www.w3.org/2000/svg" xmlns:xlink="http://www.w3.org/1999/xlink">
    <title>Logo</title>
    <g id="Logo" stroke="none" stroke-width="1" fill="none" fill-rule="evenodd">
        <g id="Nuxtlogo" transform="translate(0.000000, -4.000000)">
            <g id="Logo" transform="translate(0.000000, 4.000000)">
                <path d="M45.8293417,24.5933626 L48.9639829,13.803428 L49.0929142,13.803428 L52.2356136,24.5933626 L55.6361755,24.5933626 L60.3582828,8.09016167 L56.5467525,8.09016167 L53.8150215,19.58116 L53.6699738,19.58116 L50.6642639,8.09016167 L47.4006914,8.09016167 L44.3869233,19.5569854 L44.2499338,19.5569854 L41.5182028,8.09016167 L37.7066725,8.09016167 L42.4287798,24.5933626 L45.8293417,24.5933626 Z M65.7089524,24.5933626 L65.7089524,19.2427154 L68.6421385,19.2427154 C72.4375524,19.2427154 74.6455002,16.9783602 74.6455002,13.682555 C74.6455002,10.4028661 72.4778434,8.09016167 68.7307787,8.09016167 L62.2197502,8.09016167 L62.2197502,24.5933626 L65.7089524,24.5933626 Z M68.0780642,16.4465188 L65.7089524,16.4465188 L65.7089524,10.9427657 L68.0619478,10.9427657 C70.0764987,10.9427657 71.0515414,12.0386814 71.0515414,13.682555 C71.0515414,15.3183703 70.0764987,16.4465188 68.0780642,16.4465188 Z M88.0301954,24.5933626 C93.0585144,24.5933626 96.1045153,21.482896 96.1045153,16.3256457 C96.1045153,11.1845119 93.0585144,8.09016167 88.0785446,8.09016167 L82.1799395,8.09016167 L82.1799395,24.5933626 L88.0301954,24.5933626 Z M87.8851477,21.6037691 L85.6691417,21.6037691 L85.6691417,11.0797552 L87.8932059,11.0797552 C90.9875561,11.0797552 92.6233714,12.6591631 92.6233714,16.3256457 C92.6233714,20.0082448 90.9875561,21.6037691 87.8851477,21.6037691 Z M104.259433,24.8351087 C107.32155,24.8351087 109.384451,23.3443411 109.867943,21.047753 L106.693011,20.8382398 C106.346508,21.7810496 105.460105,22.2726 104.315841,22.2726 C102.599443,22.2726 101.511586,21.1363933 101.511586,19.2910647 L101.511586,19.2830065 L109.940467,19.2830065 L109.940467,18.3401966 C109.940467,14.1338144 107.394074,12.0547978 104.122444,12.0547978 C100.480136,12.0547978 98.119082,14.6414812 98.119082,18.4610697 C98.119082,22.3854148 100.447903,24.8351087 104.259433,24.8351087 Z M106.709127,17.1556407 L101.511586,17.1556407 C101.58411,15.7454551 102.655851,14.6173066 104.178851,14.6173066 C105.669619,14.6173066 106.701069,15.6809895 106.709127,17.1556407 Z M119.392752,24.5933626 L123.720008,12.2159619 L120.085758,12.2159619 L117.523249,21.0719277 L117.394318,21.0719277 L114.823751,12.2159619 L111.197559,12.2159619 L115.524815,24.5933626 L119.392752,24.5933626 Z M134.292389,24.5933626 L134.292389,18.7431068 L136.838781,18.7431068 L139.965364,24.5933626 L143.817185,24.5933626 L140.311867,18.1790326 C142.189428,17.3732122 143.228936,15.7373969 143.228936,13.4810999 C143.228936,10.201411 141.06128,8.09016167 137.314215,8.09016167 L130.803186,8.09016167 L130.803186,24.5933626 L134.292389,24.5933626 Z M136.6615,15.938852 L134.292389,15.938852 L134.292389,10.9427657 L136.645384,10.9427657 C138.659935,10.9427657 139.634978,11.8372263 139.634978,13.4810999 C139.634978,15.1169152 138.659935,15.938852 136.6615,15.938852 Z M151.271038,24.8351087 C154.333155,24.8351087 156.396055,23.3443411 156.879547,21.047753 L153.704615,20.8382398 C153.358112,21.7810496 152.47171,22.2726 151.327445,22.2726 C149.611048,22.2726 148.52319,21.1363933 148.52319,19.2910647 L148.52319,19.2830065 L156.952071,19.2830065 L156.952071,18.3401966 C156.952071,14.1338144 154.405679,12.0547978 151.134048,12.0547978 C147.49174,12.0547978 145.130687,14.6414812 145.130687,18.4610697 C145.130687,22.3854148 147.459507,24.8351087 151.271038,24.8351087 Z M153.720732,17.1556407 L148.52319,17.1556407 C148.595714,15.7454551 149.667455,14.6173066 151.190456,14.6173066 C152.681223,14.6173066 153.712673,15.6809895 153.720732,17.1556407 Z M164.784658,24.8351087 C168.080463,24.8351087 170.151422,22.9011399 170.312586,20.056594 L167.073188,20.056594 C166.871733,21.3781394 166.001447,22.1194941 164.824949,22.1194941 C163.221367,22.1194941 162.181858,20.7737741 162.181858,18.4046623 C162.181858,16.0677832 163.229425,14.7301214 164.824949,14.7301214 C166.082029,14.7301214 166.887849,15.5601164 167.073188,16.7930215 L170.312586,16.7930215 C170.167538,13.9323593 167.999881,12.0547978 164.768542,12.0547978 C161.013419,12.0547978 158.692656,14.6575976 158.692656,18.4530115 C158.692656,22.2161926 160.973128,24.8351087 164.784658,24.8351087 Z M174.245002,10.6204376 C175.268394,10.6204376 176.106447,9.83879185 176.106447,8.87986562 C176.106447,7.9289976 175.268394,7.14735185 174.245002,7.14735185 C173.229668,7.14735185 172.391615,7.9289976 172.391615,8.87986562 C172.391615,9.83879185 173.229668,10.6204376 174.245002,10.6204376 Z M175.953341,24.5933626 L175.953341,12.2159619 L172.520546,12.2159619 L172.520546,24.5933626 L175.953341,24.5933626 Z M182.125931,29.2348879 L182.125931,22.6110445 L182.230687,22.6110445 C182.706121,23.6424946 183.74563,24.7948177 185.744064,24.7948177 C188.564435,24.7948177 190.764325,22.5626953 190.764325,18.4207787 C190.764325,14.1660472 188.467737,12.0547978 185.752122,12.0547978 C183.681164,12.0547978 182.690005,13.287703 182.230687,14.2949784 L182.077582,14.2949784 L182.077582,12.2159619 L178.693136,12.2159619 L178.693136,29.2348879 L182.125931,29.2348879 Z M184.656207,22.0630867 C183.004275,22.0630867 182.053407,20.61261 182.053407,18.4046623 C182.053407,16.1967145 182.988159,14.7865289 184.656207,14.7865289 C186.356488,14.7865289 187.259006,16.2611801 187.259006,18.4046623 C187.259006,20.5642608 186.340371,22.0630867 184.656207,22.0630867 Z M198.685553,24.8351087 C201.74767,24.8351087 203.81057,23.3443411 204.294063,21.047753 L201.11913,20.8382398 C200.772628,21.7810496 199.886225,22.2726 198.74196,22.2726 C197.025563,22.2726 195.937705,21.1363933 195.937705,19.2910647 L195.937705,19.2830065 L204.366586,19.2830065 L204.366586,18.3401966 C204.366586,14.1338144 201.820194,12.0547978 198.548563,12.0547978 C194.906255,12.0547978 192.545202,14.6414812 192.545202,18.4610697 C192.545202,22.3854148 194.874023,24.8351087 198.685553,24.8351087 Z M201.135247,17.1556407 L195.937705,17.1556407 C196.010229,15.7454551 197.08197,14.6173066 198.604971,14.6173066 C200.095738,14.6173066 201.127189,15.6809895 201.135247,17.1556407 Z M211.67539,24.8351087 C214.882555,24.8351087 217.179143,23.1992934 217.187201,20.7576577 C217.179143,18.9687365 216.010703,17.8969954 213.609359,17.405445 L211.369178,16.9541856 C210.216855,16.7043813 209.78977,16.3095293 209.797829,15.7132223 C209.78977,14.9718675 210.627823,14.4883753 211.691506,14.4883753 C212.88412,14.4883753 213.593242,15.1410898 213.762465,15.938852 L216.905164,15.7454551 C216.598952,13.4649835 214.761682,12.0547978 211.635099,12.0547978 C208.468225,12.0547978 206.38115,13.5213909 206.389208,15.9066192 C206.38115,17.760006 207.54959,18.9606783 209.967051,19.4441705 L212.110533,19.8712553 C213.190332,20.0888268 213.681883,20.4836788 213.697999,21.1041605 C213.681883,21.837457 212.88412,22.3612402 211.683448,22.3612402 C210.458601,22.3612402 209.644723,21.837457 209.435209,20.8301815 L206.058822,21.007462 C206.38115,23.3765739 208.395701,24.8351087 211.67539,24.8351087 Z" id="WPDevRecipes" fill="#34233C" fill-rule="nonzero"></path>
                <g id="Icon">
                    <rect id="Rectangle" fill="#00D179" x="0" y="0" width="32.4170328" height="32.4170328"></rect>
                    <g id="Utensils" transform="translate(7.618003, 6.483407)" fill="#34233C" fill-rule="nonzero" stroke="#34233C" stroke-width="0.5">
                        <path d="M2.62423599,19.4502197 C2.88665959,19.4502197 3.08733646,19.2495428 3.08733646,18.9871192 L3.08733646,8.59823203 C4.30683436,8.38211848 5.24847197,7.30155072 5.24847197,6.02030609 L5.24847197,0.463100468 C5.24847197,0.20067687 5.0477951,0 4.78537151,0 C4.52294791,0 4.32227104,0.20067687 4.32227104,0.463100468 L4.32227104,6.02030609 C4.32227104,6.96194371 3.56587361,7.71834114 2.62423599,7.71834114 C1.68259837,7.71834114 0.926200937,6.96194371 0.926200937,6.02030609 L0.926200937,0.463100468 C0.926200937,0.20067687 0.725524067,0 0.463100468,0 C0.20067687,0 0,0.20067687 0,0.463100468 L0,6.02030609 C0,7.30155072 0.941637619,8.38211848 2.16113552,8.59823203 L2.16113552,18.9871192 C2.16113552,19.2495428 2.36181239,19.4502197 2.62423599,19.4502197 Z" id="Path"></path>
                        <path d="M2.16113552,0.463100468 L2.16113552,6.02030609 C2.16113552,6.28272969 2.36181239,6.48340656 2.62423599,6.48340656 C2.88665959,6.48340656 3.08733646,6.28272969 3.08733646,6.02030609 L3.08733646,0.463100468 C3.08733646,0.20067687 2.88665959,0 2.62423599,0 C2.36181239,0 2.16113552,0.20067687 2.16113552,0.463100468 Z M10.0338435,19.4502197 C10.2962671,19.4502197 10.4969439,19.2495428 10.4969439,18.9871192 L10.4969439,0.463100468 C10.4969439,0.20067687 10.2962671,0 10.0338435,0 C8.16600492,0 6.63777338,1.52823155 6.63777338,3.3960701 L6.63777338,12.8124463 C6.63777338,13.0748699 6.83845025,13.2755468 7.10087385,13.2755468 L9.57074301,13.2755468 L9.57074301,18.9871192 C9.57074301,19.2495428 9.77141988,19.4502197 10.0338435,19.4502197 Z M7.56397432,12.3493458 L7.56397432,3.3960701 C7.56397432,2.19200888 8.42842852,1.18862454 9.57074301,0.972510983 L9.57074301,12.3493458 L7.56397432,12.3493458 Z M17.2890842,2.62423599 C17.2890842,1.17318785 16.1158963,0 14.6648482,0 C13.2138,0 12.0406122,1.17318785 12.0406122,2.62423599 L12.0406122,6.02030609 C12.0406122,7.30155072 12.9822498,8.38211848 14.2017477,8.59823203 L14.2017477,18.9871192 C14.2017477,19.2495428 14.4024246,19.4502197 14.6648482,19.4502197 C14.9272718,19.4502197 15.1279486,19.2495428 15.1279486,18.9871192 L15.1279486,8.59823203 C16.3474465,8.38211848 17.2890842,7.30155072 17.2890842,6.02030609 L17.2890842,2.62423599 Z M16.3628832,6.02030609 C16.3628832,6.96194371 15.6064858,7.71834114 14.6648482,7.71834114 C13.7232105,7.71834114 12.9668131,6.96194371 12.9668131,6.02030609 L12.9668131,2.62423599 C12.9668131,1.68259837 13.7232105,0.926200937 14.6648482,0.926200937 C15.6064858,0.926200937 16.3628832,1.68259837 16.3628832,2.62423599 L16.3628832,6.02030609 Z" id="Shape"></path>
                    </g>
                </g>
            </g>
        </g>
    </g>
</svg>